<?xml version="1.0" encoding="UTF-8"?>
<svg xmlns="http://www.w3.org/2000/svg" viewBox="0 0 64 64" width="64px" height="64px">
    <g id="surface144834386">
        <path style=" stroke:none;fill-rule:nonzero;fill:rgb(100%,100%,100%);fill-opacity:0.52157;"
              d="M 18 6 L 18 28 L 18.3125 28.5 L 20.8125 32.625 L 20.75 32.625 L 24 38 L 27.25 32.625 L 27.1875 32.625 L 29.6875 28.5 L 30 28 L 30 16 L 48 16 C 49.101562 16 50 16.898438 50 18 L 50 38 L 24 38 L 27.9375 44.5625 L 27.4375 44.9375 L 22 49.4375 L 22 44 L 16 44 C 14.898438 44 14 43.101562 14 42 L 14 18 C 14 16.898438 14.898438 16 16 16 L 16 12 C 12.6875 12 10 14.6875 10 18 L 10 42 C 10 45.3125 12.6875 48 16 48 L 18 48 L 18 58 L 30 48 L 48 48 C 51.3125 48 54 45.3125 54 42 L 54 18 C 54 14.6875 51.3125 12 48 12 L 30 12 L 30 6 Z M 22 10 L 26 10 L 26 22.5625 L 24.625 22.125 L 24 21.875 L 23.375 22.125 L 22 22.5625 Z M 24 26.0625 L 26 26.75 L 26 26.9375 L 24 30.25 L 22 26.9375 L 22 26.75 Z M 24 26.0625 "/>
    </g>
</svg>
