<?xml version="1.0" encoding="UTF-8"?>
<svg xmlns="http://www.w3.org/2000/svg" xmlns:xlink="http://www.w3.org/1999/xlink" viewBox="0 0 60 60" width="60px" height="60px">
<g id="surface151863547">
<path style=" stroke:none;fill-rule:nonzero;fill:rgb(100%,100%,100%);fill-opacity:1;" d="M 8 8 L 8 48 C 8 50.199219 9.800781 52 12 52 L 36 52 L 52 36 L 52 8 L 50 8 L 46 10 L 42.039062 8 L 38 10 L 33.945312 8 L 30 10 L 26.078125 8 L 22 10 L 18.042969 8 L 14 10 L 9.945312 8 Z M 18.023438 12.472656 L 20.195312 13.570312 L 21.972656 14.46875 L 23.761719 13.59375 L 26.042969 12.472656 L 28.183594 13.5625 L 29.992188 14.488281 L 31.808594 13.566406 L 33.96875 12.472656 L 36.230469 13.589844 L 38.003906 14.460938 L 39.773438 13.585938 L 42.023438 12.472656 L 44.195312 13.570312 L 45.988281 14.476562 L 47.789062 13.578125 L 48 13.472656 L 48 36 L 32 36 L 32 38 L 36 38 L 36 40 L 32 40 L 32 42 L 36 42 L 36 48 L 12 48 L 12 13.472656 L 12.230469 13.589844 L 14.003906 14.460938 L 15.773438 13.585938 Z M 16 18 L 16 22 L 44 22 L 44 18 Z M 16 24 L 16 38 L 30 38 L 30 24 Z M 32 24 L 32 26 L 44 26 L 44 24 Z M 20 26 L 20 28 L 22 26 L 26 26 L 28 28 L 24 28 L 24 32 L 26 30 L 28 30 L 28 34 L 26 36 L 20 36 L 18 34 L 18 28 Z M 24 32 L 22 34 L 26 34 L 26 32 Z M 22 34 L 22 28 L 20 28 L 20 34 Z M 32 28 L 32 30 L 44 30 L 44 28 Z M 32 32 L 32 34 L 44 34 L 44 32 Z M 16 40 L 16 42 L 30 42 L 30 40 Z M 16 40 "/>
</g>
</svg>
